<svg xmlns="http://www.w3.org/2000/svg" width="48" height="48" viewBox="0 0 48 48" fill="none">
  <defs>
    <linearGradient id="set" x1="0%" y1="0%" x2="100%" y2="100%">
      <stop offset="0%" style="stop-color:#6366F1;stop-opacity:1" />
      <stop offset="100%" style="stop-color:#818CF8;stop-opacity:1" />
    </linearGradient>
  </defs>
  <rect x="2" y="2" width="44" height="44" rx="8" stroke="url(#set)" stroke-width="2.5" fill="white"/>
  <path d="M24.3 8h-.6a3 3 0 0 0-3 3v.3a3 3 0 0 1-1.5 2.6l-.6.4a3 3 0 0 1-3 0l-.2-.1a3 3 0 0 0-4.1 1.1l-.3.6a3 3 0 0 0 1.1 4.1l.2.1a3 3 0 0 1 1.5 2.6v.6a3 3 0 0 1-1.5 2.6l-.2.1a3 3 0 0 0-1.1 4.1l.3.6a3 3 0 0 0 4.1 1.1l.2-.1a3 3 0 0 1 3 0l.6.4a3 3 0 0 1 1.5 2.6V37a3 3 0 0 0 3 3h.6a3 3 0 0 0 3-3v-.3a3 3 0 0 1 1.5-2.6l.6-.4a3 3 0 0 1 3 0l.2.1a3 3 0 0 0 4.1-1.1l.3-.6a3 3 0 0 0-1.1-4.1l-.2-.1a3 3 0 0 1-1.5-2.6v-.6a3 3 0 0 1 1.5-2.6l.2-.1a3 3 0 0 0 1.1-4.1l-.3-.6a3 3 0 0 0-4.1-1.1l-.2.1a3 3 0 0 1-3 0l-.6-.4a3 3 0 0 1-1.5-2.6V11a3 3 0 0 0-3-3z" stroke="url(#set)" stroke-width="2.2" fill="none"/>
  <circle cx="24" cy="24" r="4" stroke="url(#set)" stroke-width="2.2" fill="none"/>
</svg>